<?xml version="1.0" encoding="UTF-8" standalone="no"?>
<!-- Created with Inkscape (http://www.inkscape.org/) -->

<svg
   width="98.370148mm"
   height="30.17354mm"
   viewBox="0 0 98.370148 30.17354"
   version="1.1"
   id="svg1"
   inkscape:version="1.3 (0e150ed6c4, 2023-07-21)"
   sodipodi:docname="Arrow.svg"
   xmlns:inkscape="http://www.inkscape.org/namespaces/inkscape"
   xmlns:sodipodi="http://sodipodi.sourceforge.net/DTD/sodipodi-0.dtd"
   xmlns:xlink="http://www.w3.org/1999/xlink"
   xmlns="http://www.w3.org/2000/svg"
   xmlns:svg="http://www.w3.org/2000/svg">
  <sodipodi:namedview
     id="namedview1"
     pagecolor="#000000"
     bordercolor="#000000"
     borderopacity="0.25"
     inkscape:showpageshadow="2"
     inkscape:pageopacity="0.0"
     inkscape:pagecheckerboard="false"
     inkscape:deskcolor="#d1d1d1"
     inkscape:document-units="mm"
     inkscape:zoom="0.72426347"
     inkscape:cx="238.86335"
     inkscape:cy="115.28954"
     inkscape:window-width="1920"
     inkscape:window-height="1009"
     inkscape:window-x="-8"
     inkscape:window-y="-8"
     inkscape:window-maximized="1"
     inkscape:current-layer="svg1" />
  <defs
     id="defs1">
    <color-profile
       name=""
       xlink:href="../../../../../../Windows/system32/spool/drivers/color/BOE08C5_srgb_4000.icm"
       id="color-profile1" />
  </defs>
  <g
     inkscape:label="Layer 1"
     inkscape:groupmode="layer"
     id="layer1"
     transform="translate(-41.693835,-117.97363)">
    <path
       style="fill:#f9f9f9;fill-opacity:0.232365;stroke:none;stroke-width:0.600001"
       id="path2"
       d="m 102.69432,120.29827 c 0.47369,0.0729 0.95111,0.12466 1.42106,0.21868 1.53009,0.30611 3.60306,0.8666 5.05325,1.25649 3.44688,0.9267 6.86792,1.94406 10.30266,2.91426 3.56457,1.0265 7.14104,2.01122 10.71591,3.00109 0.8922,0.24705 4.29929,1.15945 5.34509,1.50486 0.61351,0.20263 1.20701,0.46143 1.81051,0.69214 0.43534,0.21731 1.73355,0.8842 1.30601,0.65193 -0.82287,-0.44705 -1.59967,-1.01352 -2.49237,-1.29645 -0.22647,-0.0718 0.33849,0.3816 0.35384,0.61868 0.0192,0.29692 -0.11148,0.59569 -0.25846,0.8544 -0.54293,0.95566 -1.8128,2.15435 -2.49694,2.86947 -4.07343,3.86103 -8.29598,7.58594 -12.69995,11.06799 -1.3586,1.06127 -0.75281,0.58068 -1.82141,1.43666 0,0 3.30263,2.0587 3.30263,2.0587 v 0 c 0.9814,-0.90314 0.41766,-0.39844 1.70408,-1.49962 4.28899,-3.63629 8.49124,-7.37785 12.68379,-11.12417 0.86489,-0.84731 3.05153,-2.60875 3.13798,-4.04394 0.0172,-0.28582 -0.077,-0.63031 -0.30547,-0.80286 -2.38125,-1.79823 -3.25993,-2.13812 -5.3795,-3.10976 -0.59166,-0.20954 -1.17554,-0.44251 -1.77498,-0.62863 -0.82674,-0.25669 -4.63158,-1.258 -5.24413,-1.42437 -3.57164,-0.97007 -7.13995,-1.95436 -10.69412,-2.98673 -3.45989,-0.98259 -6.90666,-2.00883 -10.37463,-2.96271 -1.62945,-0.44819 -3.54481,-0.98926 -5.22538,-1.33921 -0.50428,-0.10501 -1.01645,-0.1677 -1.524675,-0.25154 z" />
    <path
       style="fill:#f9f9f9;fill-opacity:0.232365;stroke:none;stroke-width:0.600001"
       id="path1"
       d="m 44.838305,132.05214 c 3.400827,0.96676 6.682874,2.29005 10.031949,3.41129 3.758782,1.2584 4.277016,1.34706 8.121465,2.41297 4.182731,1.07552 8.476747,1.70442 12.788392,1.93794 4.010384,0.21719 8.032329,0.0639 12.040359,-0.0966 1.14659,-0.0763 2.295091,-0.12796 3.439771,-0.22897 1.296694,-0.11442 5.746456,-0.64428 7.071661,-0.79454 1.089179,-0.1235 2.181368,-0.22159 3.268478,-0.36214 2.8711,-0.37122 3.63458,-0.54664 6.4392,-1.05778 2.98997,-0.69705 6.02635,-1.1918 9.01725,-1.88304 1.14048,-0.26358 2.27011,-0.57208 3.40655,-0.85258 2.24269,-0.5642 4.46381,-1.21477 6.73847,-1.6405 0.6222,-0.0929 1.2114,-0.31063 1.80341,-0.51243 0,0 -3.25842,-2.20722 -3.25842,-2.20722 v 0 c -0.57278,0.19625 -1.14662,0.39273 -1.74727,0.48847 -2.2423,0.47935 -4.43766,1.14147 -6.65544,1.71986 -4.06864,1.02489 -8.16413,1.93068 -12.26507,2.81764 -6.648746,1.23214 -13.389001,1.95347 -20.130687,2.44469 -3.987324,0.17165 -7.974597,0.32505 -11.964773,0.0956 -4.300294,-0.2473 -8.576903,-0.88923 -12.744141,-1.98492 -1.376777,-0.38729 -2.761681,-0.74677 -4.130331,-1.16186 -4.861927,-1.47453 -9.547637,-3.457 -14.415293,-4.91082 z" />
  </g>
</svg>
